<svg xmlns="http://www.w3.org/2000/svg" viewBox="0 0 512 512">
  <rect width="512" height="512" fill="#f0f0f0"/>
  <g fill="#d80027">
    <rect width="512" height="39.38" y="39.38"/>
    <rect width="512" height="39.38" y="118.15"/>
    <rect width="512" height="39.38" y="196.92"/>
    <rect width="512" height="39.38" y="275.69"/>
    <rect width="512" height="39.38" y="354.46"/>
    <rect width="512" height="39.38" y="433.23"/>
  </g>
  <rect width="275.69" height="275.69" fill="#2e3560"/>
  <g fill="#f0f0f0">
    <path d="M35.18 15.98l2.39 7.28h7.71l-6.25 4.53 2.39 7.32-6.24-4.57-6.24 4.57 2.39-7.32-6.25-4.53h7.71zM35.18 45.6l2.39 7.28h7.71l-6.25 4.53 2.39 7.28-6.24-4.53-6.24 4.53 2.39-7.28-6.25-4.53h7.71zM35.18 75.2l2.39 7.32h7.71l-6.25 4.53 2.39 7.28-6.24-4.53-6.24 4.53 2.39-7.28-6.25-4.53h7.71zM35.18 104.8l2.39 7.32h7.71l-6.25 4.53 2.39 7.28-6.24-4.53-6.24 4.53 2.39-7.28-6.25-4.53h7.71zM35.18 134.43l2.39 7.28h7.71l-6.25 4.53 2.39 7.32-6.24-4.57-6.24 4.57 2.39-7.32-6.25-4.53h7.71zM35.18 164.02l2.39 7.32h7.71l-6.25 4.53 2.39 7.28-6.24-4.53-6.24 4.53 2.39-7.28-6.25-4.53h7.71zM35.18 193.63l2.39 7.31h7.71l-6.25 4.54 2.39 7.28-6.24-4.53-6.24 4.53 2.39-7.28-6.25-4.54h7.71zM35.18 223.25l2.39 7.28h7.71l-6.25 4.53 2.39 7.32-6.24-4.57-6.24 4.57 2.39-7.32-6.25-4.53h7.71zM64.8 30.8l2.39 7.28h7.71l-6.24 4.53 2.38 7.32-6.24-4.57-6.24 4.57 2.38-7.32-6.24-4.53h7.71zM64.8 60.4l2.39 7.28h7.71l-6.24 4.53 2.38 7.32-6.24-4.53-6.24 4.53 2.38-7.32-6.24-4.53h7.71zM64.8 90.03l2.39 7.28h7.71l-6.24 4.53 2.38 7.32-6.24-4.57-6.24 4.57 2.38-7.32-6.24-4.53h7.71zM64.8 119.62l2.39 7.32h7.71l-6.24 4.53 2.38 7.28-6.24-4.53-6.24 4.53 2.38-7.28-6.24-4.53h7.71zM64.8 149.23l2.39 7.31h7.71l-6.24 4.54 2.38 7.28-6.24-4.53-6.24 4.53 2.38-7.28-6.24-4.54h7.71zM64.8 178.85l2.39 7.28h7.71l-6.24 4.53 2.38 7.32-6.24-4.57-6.24 4.57 2.38-7.32-6.24-4.53h7.71zM64.8 208.48l2.39 7.28h7.71l-6.24 4.53 2.38 7.28-6.24-4.53-6.24 4.53 2.38-7.28-6.24-4.53h7.71zM64.8 238.05l2.39 7.32h7.71l-6.24 4.53 2.38 7.28-6.24-4.53-6.24 4.53 2.38-7.28-6.24-4.53h7.71zM94.4 15.98l2.39 7.28h7.71l-6.24 4.53 2.38 7.32-6.24-4.57-6.24 4.57 2.39-7.32-6.25-4.53h7.71zM94.4 45.6l2.39 7.28h7.71l-6.24 4.53 2.38 7.28-6.24-4.53-6.24 4.53 2.39-7.28-6.25-4.53h7.71zM94.4 75.2l2.39 7.32h7.71l-6.24 4.53 2.38 7.28-6.24-4.53-6.24 4.53 2.39-7.28-6.25-4.53h7.71zM94.4 104.8l2.39 7.32h7.71l-6.24 4.53 2.38 7.28-6.24-4.53-6.24 4.53 2.39-7.28-6.25-4.53h7.71zM94.4 134.43l2.39 7.28h7.71l-6.24 4.53 2.38 7.32-6.24-4.57-6.24 4.57 2.39-7.32-6.25-4.53h7.71zM94.4 164.02l2.39 7.32h7.71l-6.24 4.53 2.38 7.28-6.24-4.53-6.24 4.53 2.39-7.28-6.25-4.53h7.71zM94.4 193.63l2.39 7.31h7.71l-6.24 4.54 2.38 7.28-6.24-4.53-6.24 4.53 2.39-7.28-6.25-4.54h7.71zM94.4 223.25l2.39 7.28h7.71l-6.24 4.53 2.38 7.32-6.24-4.57-6.24 4.57 2.39-7.32-6.25-4.53h7.71zM124.03 30.8l2.38 7.28h7.71l-6.24 4.53 2.39 7.32-6.24-4.57-6.24 4.57 2.38-7.32-6.24-4.53h7.71zM124.03 60.4l2.38 7.28h7.71l-6.24 4.53 2.39 7.32-6.24-4.53-6.24 4.53 2.38-7.32-6.24-4.53h7.71zM124.03 90.03l2.38 7.28h7.71l-6.24 4.53 2.39 7.32-6.24-4.57-6.24 4.57 2.38-7.32-6.24-4.53h7.71zM124.03 119.62l2.38 7.32h7.71l-6.24 4.53 2.39 7.28-6.24-4.53-6.24 4.53 2.38-7.28-6.24-4.53h7.71zM124.03 149.23l2.38 7.31h7.71l-6.24 4.54 2.39 7.28-6.24-4.53-6.24 4.53 2.38-7.28-6.24-4.54h7.71zM124.03 178.85l2.38 7.28h7.71l-6.24 4.53 2.39 7.32-6.24-4.57-6.24 4.57 2.38-7.32-6.24-4.53h7.71zM124.03 208.48l2.38 7.28h7.71l-6.24 4.53 2.39 7.28-6.24-4.53-6.24 4.53 2.38-7.28-6.24-4.53h7.71zM124.03 238.05l2.38 7.32h7.71l-6.24 4.53 2.39 7.28-6.24-4.53-6.24 4.53 2.38-7.28-6.24-4.53h7.71zM153.62 15.98l2.39 7.28h7.71l-6.25 4.53 2.39 7.32-6.24-4.57-6.24 4.57 2.39-7.32-6.25-4.53h7.71zM153.62 45.6l2.39 7.28h7.71l-6.25 4.53 2.39 7.28-6.24-4.53-6.24 4.53 2.39-7.28-6.25-4.53h7.71zM153.62 75.2l2.39 7.32h7.71l-6.25 4.53 2.39 7.28-6.24-4.53-6.24 4.53 2.39-7.28-6.25-4.53h7.71zM153.62 104.8l2.39 7.32h7.71l-6.25 4.53 2.39 7.28-6.24-4.53-6.24 4.53 2.39-7.28-6.25-4.53h7.71zM153.62 134.43l2.39 7.28h7.71l-6.25 4.53 2.39 7.32-6.24-4.57-6.24 4.57 2.39-7.32-6.25-4.53h7.71zM153.62 164.02l2.39 7.32h7.71l-6.25 4.53 2.39 7.28-6.24-4.53-6.24 4.53 2.39-7.28-6.25-4.53h7.71zM153.62 193.63l2.39 7.31h7.71l-6.25 4.54 2.39 7.28-6.24-4.53-6.24 4.53 2.39-7.28-6.25-4.54h7.71zM153.62 223.25l2.39 7.28h7.71l-6.25 4.53 2.39 7.32-6.24-4.57-6.24 4.57 2.39-7.32-6.25-4.53h7.71zM183.25 30.8l2.38 7.28h7.71l-6.24 4.53 2.39 7.32-6.24-4.57-6.24 4.57 2.38-7.32-6.24-4.53h7.71zM183.25 60.4l2.38 7.28h7.71l-6.24 4.53 2.39 7.32-6.24-4.53-6.24 4.53 2.38-7.32-6.24-4.53h7.71zM183.25 90.03l2.38 7.28h7.71l-6.24 4.53 2.39 7.32-6.24-4.57-6.24 4.57 2.38-7.32-6.24-4.53h7.71zM183.25 119.62l2.38 7.32h7.71l-6.24 4.53 2.39 7.28-6.24-4.53-6.24 4.53 2.38-7.28-6.24-4.53h7.71zM183.25 149.23l2.38 7.31h7.71l-6.24 4.54 2.39 7.28-6.24-4.53-6.24 4.53 2.38-7.28-6.24-4.54h7.71zM183.25 178.85l2.38 7.28h7.71l-6.24 4.53 2.39 7.32-6.24-4.57-6.24 4.57 2.38-7.32-6.24-4.53h7.71zM183.25 208.48l2.38 7.28h7.71l-6.24 4.53 2.39 7.28-6.24-4.53-6.24 4.53 2.38-7.28-6.24-4.53h7.71zM183.25 238.05l2.38 7.32h7.71l-6.24 4.53 2.39 7.28-6.24-4.53-6.24 4.53 2.38-7.28-6.24-4.53h7.71zM212.85 15.98l2.39 7.28h7.71l-6.25 4.53 2.39 7.32-6.24-4.57-6.24 4.57 2.39-7.32-6.25-4.53h7.71zM212.85 45.6l2.39 7.28h7.71l-6.25 4.53 2.39 7.28-6.24-4.53-6.24 4.53 2.39-7.28-6.25-4.53h7.71zM212.85 75.2l2.39 7.32h7.71l-6.25 4.53 2.39 7.28-6.24-4.53-6.24 4.53 2.39-7.28-6.25-4.53h7.71zM212.85 104.8l2.39 7.32h7.71l-6.25 4.53 2.39 7.28-6.24-4.53-6.24 4.53 2.39-7.28-6.25-4.53h7.71zM212.85 134.43l2.39 7.28h7.71l-6.25 4.53 2.39 7.32-6.24-4.57-6.24 4.57 2.39-7.32-6.25-4.53h7.71zM212.85 164.02l2.39 7.32h7.71l-6.25 4.53 2.39 7.28-6.24-4.53-6.24 4.53 2.39-7.28-6.25-4.53h7.71zM212.85 193.63l2.39 7.31h7.71l-6.25 4.54 2.39 7.28-6.24-4.53-6.24 4.53 2.39-7.28-6.25-4.54h7.71zM212.85 223.25l2.39 7.28h7.71l-6.25 4.53 2.39 7.32-6.24-4.57-6.24 4.57 2.39-7.32-6.25-4.53h7.71zM242.45 30.8l2.39 7.28h7.71l-6.24 4.53 2.38 7.32-6.24-4.57-6.24 4.57 2.38-7.32-6.24-4.53h7.71zM242.45 60.4l2.39 7.28h7.71l-6.24 4.53 2.38 7.32-6.24-4.53-6.24 4.53 2.38-7.32-6.24-4.53h7.71zM242.45 90.03l2.39 7.28h7.71l-6.24 4.53 2.38 7.32-6.24-4.57-6.24 4.57 2.38-7.32-6.24-4.53h7.71zM242.45 119.62l2.39 7.32h7.71l-6.24 4.53 2.38 7.28-6.24-4.53-6.24 4.53 2.38-7.28-6.24-4.53h7.71zM242.45 149.23l2.39 7.31h7.71l-6.24 4.54 2.38 7.28-6.24-4.53-6.24 4.53 2.38-7.28-6.24-4.54h7.71zM242.45 178.85l2.39 7.28h7.71l-6.24 4.53 2.38 7.32-6.24-4.57-6.24 4.57 2.38-7.32-6.24-4.53h7.71zM242.45 208.48l2.39 7.28h7.71l-6.24 4.53 2.38 7.28-6.24-4.53-6.24 4.53 2.38-7.28-6.24-4.53h7.71zM242.45 238.05l2.39 7.32h7.71l-6.24 4.53 2.38 7.28-6.24-4.53-6.24 4.53 2.38-7.28-6.24-4.53h7.71z"/>
  </g>
</svg> 