<svg xmlns="http://www.w3.org/2000/svg" viewBox="0 0 900 600">
  <rect width="900" height="600" fill="#fff"/>
  <circle cx="450" cy="300" r="150" fill="#CD2E3A"/>
  <path d="M450,150 A150,150 0 0,0 450,450 A75,75 0 0,1 450,300 A75,75 0 0,0 450,150Z" fill="#0047A0"/>
  <g fill="none" stroke="#000" stroke-width="30">
    <path d="M200,150 L200,250 M200,175 L250,175 M200,225 L250,225"/>
    <path d="M700,350 L700,450 M700,375 L650,375 M700,425 L650,425"/>
    <path d="M200,350 L250,350 M200,375 L250,375 M200,400 L250,400 M200,425 L250,425 M200,450 L250,450"/>
    <path d="M700,150 L650,150 M700,175 L650,175 M700,200 L650,200 M700,225 L650,225 M700,250 L650,250"/>
  </g>
</svg> 