<svg xmlns="http://www.w3.org/2000/svg" viewBox="0 0 512 512">
  <rect width="512" height="512" fill="#de2910"/>
  <g fill="#ffde00">
    <path d="M128 128l8.4 25.6 27-0.2-21.9 15.7 8.6 25.5-22-15.6-22 15.6 8.6-25.5-21.9-15.7 27 0.2z"/>
    <path d="M223.8 88l-1 17.4-14.6 9.3 16.8 1.9 6.6 16.1 6.7-16 16.8-1.8-14.6-9.4-0.9-17.4-9.8 14.2z"/>
    <path d="M233.8 150l9.3-14.6 17.4 1-9.4-14.6 9.3-14.6-17.4 1-9.4-14.6-1 17.4-17.4 1 17.4 1z"/>
    <path d="M224 205.8l16-6.7 9.4 14.6 1.9-16.8 16.1-6.6-16-6.7 1.8-16.8-14.6 9.4-16-6.7 9.3 14.6z"/>
    <path d="M178.7 216.7l17.4-0.9 0 17.4 9.3-14.6 17.4-0.9-14.6-9.4 9.3-14.6-14.6 9.3-14.6-9.3 0 17.4z"/>
  </g>
</svg> 